<?xml version="1.0" encoding="utf-8"?>
<!DOCTYPE svg PUBLIC "-//W3C//DTD SVG 1.1//EN" "http://www.w3.org/Graphics/SVG/1.1/DTD/svg11.dtd">
<svg version="1.1" id="DNA" xmlns="http://www.w3.org/2000/svg" xmlns:xlink="http://www.w3.org/1999/xlink" x="0px" y="0px"
	 width="291px" height="344px" viewBox="0 0 291 344" enable-background="new 0 0 291 344"
	 xml:space="preserve">
		<path fill="#0091EA" d="M214.822,49.736c-0.986-11.79,0.609-24.155,6.747-34.465c2.803-4.514,1.233-11.049-3.37-13.742
			c-4.363-2.871-10.817-1.568-13.667,2.815c-8.557,13.674-11.262,30.307-9.995,46.207c1.665,24.847,11.358,48.16,15.175,72.623
			c1.219,8.591,1.671,17.688-1.631,25.902c-2.973,7.583-9.31,13.297-16.298,17.194c-9.844,5.501-20.818,8.502-31.663,11.352
			c0.87,6.734,1.686,13.475,2.535,20.216c8.001-1.843,15.893-4.179,23.647-6.892c13.763-5.09,27.354-12.762,35.733-25.183
			c7.713-11.18,9.844-25.299,8.617-38.603C228.304,100.793,216.938,76.146,214.822,49.736z M264.995,36.734
			c-11.886-6.447-23.833-12.769-35.705-19.237c-2.103,3.33-3.747,6.927-4.932,10.681c11.159,5.98,22.312,11.981,33.471,17.969
			C260.433,43.173,262.81,40.016,264.995,36.734z M286.294,37.494c-4.295-3.158-10.981-2.048-13.989,2.363
			c-4.891,7.461-10.639,14.421-17.523,20.121c-7.433,6.254-16.153,10.837-25.306,14.002c1.637,6.569,3.274,13.14,4.938,19.709
			c3.453-1.124,6.851-2.419,10.181-3.851c18.668-8.021,34.348-22.298,44.967-39.527C291.87,45.989,290.314,40.221,286.294,37.494z
			 M223.098,54.011c4.898,2.665,9.823,5.282,14.729,7.934c3.932-2.069,7.687-4.487,11.125-7.303
			c-8.823-4.748-17.634-9.516-26.484-14.215C222.228,44.961,222.55,49.51,223.098,54.011z M147.872,150.515
			c-0.186-9.693-0.356-19.963,4.034-28.875c3.658-7.371,11.311-11.53,18.791-14.105c7.357-2.508,14.894-4.576,22.607-5.638
			c-1.452-6.618-2.761-13.263-4.186-19.888c-9.79,1.556-19.449,4.138-28.636,7.878c-8.214,3.385-16.024,8.248-21.689,15.202
			c-6.577,7.939-9.749,18.16-10.701,28.299c-1.418,14.853,0.083,29.773,1.528,44.563c2.644,25.703,7.138,51.399,5.713,77.336
			c-0.671,13.845-2.863,27.847-8.522,40.596c-3.281,7.44-7.905,14.222-13.214,20.354c-3.124,3.72-6.543,7.179-9.584,10.961
			c-3.467,4.268-2.405,11.241,2.116,14.345c3.878,2.918,9.852,2.474,13.188-1.089c6.912-7.96,14.312-15.605,19.866-24.628
			c7.42-11.68,11.818-25.039,14.141-38.616c3.568-21.265,2.856-42.994,0.705-64.368
			C151.804,192.084,148.741,171.396,147.872,150.515z M202.114,125.325c-6.926-4.296-13.845-8.604-20.743-12.955
			c-6.146,1.774-12.476,3.563-17.771,7.296c12.715,7.975,25.449,15.9,38.178,23.84C203.299,137.574,203.012,131.333,202.114,125.325
			z M155.736,152.337c6.172,3.843,12.358,7.679,18.51,11.57c0.706,0.356,1.445,1.199,2.309,0.706
			c5.528-2.001,10.954-4.439,15.771-7.858c-12.064-7.467-24.053-15.05-36.13-22.497
			C155.414,140.252,155.503,146.309,155.736,152.337z M82.949,209.285c13.311-3.048,27.005-3.658,40.541-5.09
			c-1.103-6.679-2.24-13.352-3.384-20.024c-16.853,1.631-33.972,2.563-50.222,7.666c-11.741,3.576-22.723,9.365-32.656,16.53
			c-12.989,9.379-24.36,20.813-34.801,32.917c-3.563,3.933-3.151,10.646,0.891,14.092c3.952,3.774,10.878,3.377,14.393-0.802
			c9.975-11.454,20.675-22.463,33.219-31.136C60.575,216.739,71.488,211.848,82.949,209.285z M107.569,262.034
			c5.385,4.844,10.481,10.043,16.064,14.646c3.521-6.563,3.666-14.16,3.898-21.414c-13.872-12.914-27.731-25.848-41.679-38.679
			c-6.844,1.508-13.427,3.974-19.716,7.056C79.927,236.462,93.751,249.245,107.569,262.034z M116.523,300.048
			c-23.004-21.463-46.084-42.85-69.143-64.251c-4.46,3.81-8.796,7.762-12.886,11.961c23.676,21.963,47.337,43.953,70.985,65.958
			C109.399,309.352,113.008,304.733,116.523,300.048z"/>
</svg>