<?xml version="1.0" encoding="iso-8859-1"?>
<!-- Generator: Adobe Illustrator 16.0.0, SVG Export Plug-In . SVG Version: 6.00 Build 0)  -->
<!DOCTYPE svg PUBLIC "-//W3C//DTD SVG 1.1//EN" "http://www.w3.org/Graphics/SVG/1.1/DTD/svg11.dtd">
<svg version="1.1" id="Capa_1" xmlns="http://www.w3.org/2000/svg" xmlns:xlink="http://www.w3.org/1999/xlink" x="0px" y="0px"
	 height="572.6px" width="572.6px" viewBox="0 0 572.6 572.6" style="enable-background:new 0 0 572.6 572.6;" xml:space="preserve"
	>
<g>
	<path fill="#0091EA" d="M464.529,317.111c0-75.049-40.443-140.178-99.302-172.021c-4.445-31.794-31.736-56.355-64.728-56.355
		c-7.368,0-14.432,1.279-21.047,3.529V63.096c0-7.21-5.456-13.089-12.459-13.868v-22.74c0-0.536-0.109-1.041-0.155-1.559h11.323
		c5.151,0,9.341-4.189,9.341-9.353V9.347c0-5.164-4.189-9.347-9.341-9.347h-72.19c-5.163,0-9.353,4.183-9.353,9.347v6.229
		c0,5.164,4.189,9.353,9.353,9.353h11.311c-0.052,0.518-0.159,1.022-0.159,1.559v22.746c-6.999,0.779-12.455,6.646-12.455,13.868
		v205.664c0,7.614,6.064,13.771,13.63,13.99v94.297h0.484c2.195,2.666,11.779,7.014,23.27,7.014c11.512,0,21.096-4.348,23.285-7.014
		h0.472v-94.297c7.563-0.207,13.643-6.37,13.643-13.984v-52.68c6.615,2.25,13.679,3.528,21.047,3.528
		c23.468,0,44.024-12.458,55.582-31.063c39.786,26.536,66.378,74.229,66.378,128.554c0,33.686-10.236,64.825-27.469,89.949
		l-46.972,18.761v-1.225H161.826v20.247H348.02v-8.957l35.451-14.163c-25.245,28.412-60.636,46.137-99.776,46.137v0.348h-41.629
		v48.299H108.07V572.6h292.146v-56.094h-74.008v-12.008C405.465,484.051,464.529,407.821,464.529,317.111z M300.5,205.597
		c-28.354,0-51.42-23.065-51.42-51.417c0-28.351,23.066-51.417,51.42-51.417c22.457,0,41.553,14.499,48.543,34.62
		c-6.126-2.539-12.386-4.752-18.81-6.573c-6.924-8.811-17.658-14.489-29.745-14.489c-20.911,0-37.857,16.953-37.857,37.859
		c0,20.907,16.953,37.854,37.857,37.854c12.921,0,24.319-6.491,31.164-16.38c4.231,1.696,8.354,3.611,12.373,5.73
		C334.94,195.894,318.853,205.597,300.5,205.597z"/>
</g>
<g>
</g>
<g>
</g>
<g>
</g>
<g>
</g>
<g>
</g>
<g>
</g>
<g>
</g>
<g>
</g>
<g>
</g>
<g>
</g>
<g>
</g>
<g>
</g>
<g>
</g>
<g>
</g>
<g>
</g>
</svg>
