<svg xmlns="http://www.w3.org/2000/svg" xmlns:xlink="http://www.w3.org/1999/xlink" viewBox="0 0 24 30" version="1.1" x="0px" y="0px">
    <title>map_031-direction-path-location-pin</title>
    <desc>Created with Sketch.</desc>
    <g stroke="none" stroke-width="1" fill="none" fill-rule="evenodd">
        <g transform="translate(-45.000000, -189.000000)" fill="#000000">
            <g transform="translate(45.000000, 190.000000)">
                <path fill="#00609A" d="M20.7957071,8.61746971 C20.9003258,8.54073924 21.0753514,8.40189377 21.297596,8.20785293 C21.6655566,7.88658796 22.0332811,7.5244421 22.3776453,7.12758681 C23.3865919,5.96484744 24,4.74390269 24,3.5 C24,1.56700338 22.4329966,0 20.5,0 C18.5670034,0 17,1.56700338 17,3.5 C17,4.74390269 17.6134081,5.96484744 18.6223547,7.12758681 C18.9667189,7.5244421 19.3344434,7.88658796 19.702404,8.20785293 C19.9246486,8.40189377 20.0996742,8.54073924 20.2042929,8.61746971 C20.3802989,8.74655771 20.6197011,8.74655771 20.7957071,8.61746971 Z M19.3776453,6.47219673 C18.5115919,5.47413162 18,4.45584478 18,3.5 C18,2.11928813 19.1192881,1 20.5,1 C21.8807119,1 23,2.11928813 23,3.5 C23,4.45584478 22.4884081,5.47413162 21.6223547,6.47219673 C21.4113337,6.71538348 20.980011,7.15203857 20.5,7.5838623 C20.0151367,7.15203857 19.6895311,6.83162301 19.3776453,6.47219673 Z" />
                <path fill="#00609A" d="M3.79570705,22.6174697 C3.9003258,22.5407392 4.0753514,22.4018938 4.29759596,22.2078529 C4.66555658,21.886588 5.0332811,21.5244421 5.37764528,21.1275868 C6.38659188,19.9648474 7,18.7439027 7,17.5 C7,15.5670034 5.43299662,14 3.5,14 C1.56700338,14 0,15.5670034 0,17.5 C0,18.7439027 0.613408122,19.9648474 1.62235472,21.1275868 C1.9667189,21.5244421 2.33444342,21.886588 2.70240404,22.2078529 C2.9246486,22.4018938 3.0996742,22.5407392 3.20429295,22.6174697 C3.38029895,22.7465577 3.61970105,22.7465577 3.79570705,22.6174697 Z M2.37764528,20.4721967 C1.51159188,19.4741316 1,18.4558448 1,17.5 C1,16.1192881 2.11928813,15 3.5,15 C4.88071187,15 6,16.1192881 6,17.5 C6,18.4558448 5.48840812,19.4741316 4.62235472,20.4721967 C4.4113337,20.7153835 3.98001099,21.1520386 3.5,21.5838623 C3.01513672,21.1520386 2.6895311,20.831623 2.37764528,20.4721967 Z" />
                <circle fill="#00609A" cx="20.5" cy="3" r="1" />
                <circle fill="#00609A" cx="3.5" cy="16" r="1" />
                <path fill="#00609A" d="M12.2209272,4 C11.9447849,4 11.7209272,4.22385763 11.7209272,4.5 C11.7209272,4.77614237 11.9447849,5 12.2209272,5 L13.7209272,5 C13.9970696,5 14.2209272,4.77614237 14.2209272,4.5 C14.2209272,4.22385763 13.9970696,4 13.7209272,4 L12.2209272,4 Z M8.22092724,4 C7.94478486,4 7.72092724,4.22385763 7.72092724,4.5 C7.72092724,4.77614237 7.94478486,5 8.22092724,5 L9.72092724,5 C9.99706961,5 10.2209272,4.77614237 10.2209272,4.5 C10.2209272,4.22385763 9.99706961,4 9.72092724,4 L8.22092724,4 Z M4.07501075,4.97894671 C3.87622202,5.1706174 3.8704517,5.48714729 4.06212239,5.68593602 C4.25379307,5.88472476 4.57032297,5.89049507 4.7691117,5.69882439 C5.07398203,5.40487058 5.44755076,5.1924158 5.85627717,5.08351084 C6.12311,5.01241335 6.28178484,4.7384667 6.21068735,4.47163387 C6.13958986,4.20480104 5.86564322,4.0461262 5.59881039,4.11722369 C5.02486022,4.27015245 4.50132971,4.567893 4.07501075,4.97894671 Z M3,8.49074554 C3,8.76504236 3.03129875,9.03554761 3.09274449,9.29827592 C3.15563049,9.56716244 3.42458525,9.73415886 3.69347178,9.67127287 C3.9623583,9.60838687 4.12935473,9.33943211 4.06646873,9.07054558 C4.02245791,8.88236509 4,8.68826849 4,8.49074554 L4,7.68894722 C4,7.41280484 3.77614238,7.18894722 3.5,7.18894722 C3.22385763,7.18894722 3,7.41280484 3,7.68894722 L3,8.49074554 Z M6.47917586,11.9999389 L6.59683551,11.9999999 C6.87297786,12.0001263 7.09693793,11.7763712 7.09706432,11.5002289 C7.09719072,11.2240865 6.87343558,11.0001264 6.59729323,11.0000001 L6.4823239,10.9999474 C6.08270406,10.997607 5.69671185,10.9013585 5.34971098,10.721394 C5.10457535,10.5942597 4.80279093,10.6899186 4.67565662,10.9350543 C4.5485223,11.1801899 4.64418126,11.4819743 4.88931689,11.6091086 C5.37614446,11.8615913 5.91782593,11.9966614 6.47917586,11.9999389 Z M10.5970644,12 C10.8732067,12 11.0970644,11.7761424 11.0970644,11.5 C11.0970644,11.2238576 10.8732067,11 10.5970644,11 L9.09706437,11 C8.820922,11 8.59706437,11.2238576 8.59706437,11.5 C8.59706437,11.7761424 8.820922,12 9.09706437,12 L10.5970644,12 Z M14.5970644,12 C14.8732067,12 15.0970644,11.7761424 15.0970644,11.5 C15.0970644,11.2238576 14.8732067,11 14.5970644,11 L13.0970644,11 C12.820922,11 12.5970644,11.2238576 12.5970644,11.5 C12.5970644,11.7761424 12.820922,12 13.0970644,12 L14.5970644,12 Z M17.4998738,12 C17.8113025,12 18.1141639,12.0570518 18.3979929,12.166916 C18.655516,12.2665977 18.9450877,12.138642 19.0447695,11.8811189 C19.1444513,11.6235958 19.0164955,11.334024 18.7589724,11.2343422 C18.360492,11.0800989 17.9352841,11 17.4998738,11 L17.0970644,11 C16.820922,11 16.5970644,11.2238576 16.5970644,11.5 C16.5970644,11.7761424 16.820922,12 17.0970644,12 L17.4998738,12 Z M19.9995098,14.4590464 L20.0000003,15.0080687 C20.00029,15.2842109 20.2243823,15.5078335 20.5005246,15.5075438 C20.7766668,15.5072541 21.0002894,15.2831618 20.9999997,15.0070196 L20.9994141,14.4487514 C20.9915811,14.0436063 20.9179903,13.6567794 20.7830469,13.2915741 C20.6873369,13.0325486 20.3997669,12.9001552 20.1407414,12.9958652 C19.8817159,13.0915752 19.7493226,13.3791451 19.8450325,13.6381706 C19.9413979,13.8989697 19.9939637,14.1752795 19.9995098,14.4590464 Z M18.4334639,17.8198104 C18.177354,17.9230691 18.0534437,18.2143949 18.1567023,18.4705047 C18.259961,18.7266146 18.5512868,18.8505249 18.8073966,18.7472663 C19.3571988,18.5255964 19.8413783,18.1667493 20.2147863,17.7072606 C20.3889402,17.4929594 20.3563945,17.1780542 20.1420932,17.0039003 C19.927792,16.8297463 19.6128869,16.8622921 19.4387329,17.0765933 C19.1716549,17.4052401 18.8256247,17.6616986 18.4334639,17.8198104 Z M14.5831125,18 C14.3069701,18 14.0831125,18.2238576 14.0831125,18.5 C14.0831125,18.7761424 14.3069701,19 14.5831125,19 L16.0831125,19 C16.3592548,19 16.5831125,18.7761424 16.5831125,18.5 C16.5831125,18.2238576 16.3592548,18 16.0831125,18 L14.5831125,18 Z M10.5831125,18 C10.3069701,18 10.0831125,18.2238576 10.0831125,18.5 C10.0831125,18.7761424 10.3069701,19 10.5831125,19 L12.0831125,19 C12.3592548,19 12.5831125,18.7761424 12.5831125,18.5 C12.5831125,18.2238576 12.3592548,18 12.0831125,18 L10.5831125,18 Z" />
                <polygon fill="#00609A" transform="translate(13.081312, 4.500000) rotate(-135.000000) translate(-13.081312, -4.500000) " points="11.5813118 3 12.5813118 3 12.5813118 5 14.5813118 5 14.5813118 6 11.5813118 6" />
                <polygon fill="#00609A" transform="translate(10.921308, 18.500000) scale(-1, 1) rotate(-135.000000) translate(-10.921308, -18.500000) " points="9.42130814 17 10.4213081 17 10.4213081 19 12.4213081 19 12.4213081 20 9.42130814 20" />
            </g>
        </g>
    </g>
</svg>
